<?xml version="1.0" encoding="utf-8"?>
<!-- Generator: Adobe Illustrator 27.5.0, SVG Export Plug-In . SVG Version: 6.00 Build 0)  -->
<svg version="1.1" xmlns="http://www.w3.org/2000/svg" xmlns:xlink="http://www.w3.org/1999/xlink" x="0px" y="0px"
	viewBox="0 0 500 500" style="enable-background:new 0 0 500 500;" xml:space="preserve">
	<g id="BACKGROUND">
		<rect x="0" y="0.001" style="fill:transparent;" width="500" height="499.999" />
	</g>
	<g id="OBJECTS">
		<g>
			<g>
				<path style="fill:#9EC2B6;"
					d="M339.458,500.001c-0.375-10.999-2.625-20.376-5.25-29.376s-13.375-47.375-13.375-47.375
				s0.625-1.125,0.625-2.25s-3.75-18.625-4.258-20s-1.992-2.625-1.992-2.625H185.54c0,0-1.484,1.25-1.992,2.625
				c-0.508,1.375-4.258,18.875-4.258,20s0.625,2.25,0.625,2.25s-10.75,38.375-13.375,47.375s-4.875,18.377-5.25,29.376H339.458z" />
				<path style="fill:#76A697;" d="M183.548,401c-0.157,0.425-0.624,2.394-1.194,4.94c6.93,3.242,37.978,14.727,68.472,14.727
				c29.422,0,59.357-10.69,67.652-14.354c-0.607-2.726-1.113-4.867-1.277-5.313c-0.508-1.375-1.992-2.625-1.992-2.625H185.54
				C185.54,398.375,184.056,399.625,183.548,401z" />
				<g>
					<path style="fill:#76A697;" d="M258.076,439.99c13.49-0.599,26.032-2.671,36.518-5.063c0.826,1.32,2.374,3.49,4.224,4.6
					c1.882,1.129,18.434,4.753,28.523,6.893c-0.205-0.728-0.409-1.453-0.612-2.176c-11.919-2.542-25.513-5.61-26.882-6.433
					c-1.266-0.759-2.418-2.23-3.181-3.366c11.855-2.823,20.833-5.967,25.173-7.608c-0.367-1.31-0.643-2.29-0.813-2.897
					c-8.483,3.236-37.381,13.229-70.652,13.229c-4.207,0-8.338-0.168-12.373-0.454c-0.668-1.119-0.073-6.318,0.252-9.156
					c0.156-1.354,0.31-2.695,0.414-3.931c0.501-5.941,1.155-15.261,1.161-15.354l-2.992-0.209
					c-0.007,0.093-0.659,9.391-1.159,15.311c-0.102,1.207-0.252,2.518-0.404,3.841c-0.473,4.119-0.751,7.161-0.406,9.251
					c-26.448-2.323-48.016-9.815-55.143-12.53c-0.171,0.607-0.445,1.588-0.814,2.899c3.823,1.446,11.25,4.063,21.105,6.602
					c-1.792,1.957-4.563,4.612-6.651,5.277c-2.058,0.655-10.835,1.595-18.434,2.3c-0.191,0.681-0.385,1.367-0.58,2.061
					c6.985-0.642,17.174-1.676,19.621-2.454c3.053-0.972,6.683-4.853,8.229-6.631c9.938,2.456,22.09,4.738,35.326,5.697
					c0.045,0.005,0.087,0.018,0.133,0.021l0.001-0.013c1.031,0.074,2.067,0.141,3.111,0.197c-0.252,5.852-1.199,27.89-1.77,42.717
					c-0.247,6.425,0.065,12.254,0.712,17.39h3.041c-0.676-5.178-0.996-11.017-0.755-17.274c0.57-14.811,1.516-36.824,1.77-42.689
					c2.181,0.083,4.383,0.132,6.606,0.132c2.254,0,4.486-0.049,6.695-0.135c-0.474,6.14-2.487,34.276-1.744,59.967h1.002
					C255.577,474.179,257.622,445.857,258.076,439.99z" />
					<path style="fill:#76A697;" d="M188.998,485.922c-2.916-1.005-15.799-1.923-14.649-0.589
					c1.149,1.334,17.149,7.751,29.649,11.584c0.813,0.249,1.25-0.584,0.417-1.334C203.582,494.833,191.914,486.927,188.998,485.922z
					" />
					<path style="fill:#76A697;" d="M216.333,489.668c-2.334-1-21-5.5-18.5-3c1.752,1.752,17.42,8.413,28.704,13.333h6.94
					c-5.3-2.474-10.898-5.085-12.145-5.667C218.833,493.168,218.667,490.668,216.333,489.668z" />
					<path style="fill:#76A697;" d="M293.665,486.917c-4.75,0.917-6.834,6.333-8.584,7.666c-1.025,0.78-6.56,2.96-12.878,5.418h5.45
					c10.41-5.227,26.511-13.48,27.512-14.418C306.499,484.333,298.415,486,293.665,486.917z" />
					<path style="fill:#76A697;" d="M317.415,482.167c-3.417,0.667-11.675,8.261-14.833,10.75c-3.722,2.933,22.166-10.5,22.666-11.25
					S320.832,481.5,317.415,482.167z" />
				</g>
				<ellipse style="fill:#382E2E;" cx="247.415" cy="427.313" rx="5.125" ry="5.813" />
			</g>
			<path style="fill:#382E2E;" d="M336.165,283.238c19.213-43.846-10.881-68.095-19.214-92.905
			c-5.776-17.197-4.167-30.666-5.667-47.46c-1.5-16.794-6.833-41.206-12.351-53.746h-97.917
			c-5.518,12.54-10.851,36.952-12.351,53.746c-1.5,16.794,0.109,30.263-5.667,47.46c-8.333,24.811-38.584,47.667-21.166,92.833
			L336.165,283.238z" />
			<g>
				<path style="fill:#FCAB90;" d="M369.54,292.5c3-4.375,8.312-11.313,8.75-12.375c0.437-1.063,8.625-14.75,11.687-18.688
				c3.063-3.938,4.938-4.875,7.688-5.938s8.937-3.875,10.312-4.625s3.75-1.188,6.25-2.875s3.313-2.938,4.125-2.5
				c0.813,0.438,2.25,3.875,0.313,7.125c-1.938,3.25-6.188,6.5-6.188,6.5l10.188-2.75c0,0,6.937-4.125,7.5-4.813
				c2.562-3.25,6.812-8.313,9.75-10.438c2.937-2.125,7-2,7.312-1.188c0.313,0.813-7.875,11.5-7.875,11.5
				c3.75-2.688,5.521-4.021,8.063-5.105c2.542-1.083,4.5-1.041,5.375-0.416s0.125,1.416-0.375,2.041s-6.833,6.708-6.833,6.708
				s1.125,0.459,1,1.084s-3.126,5.167-3.126,5.167s1.209,0.375,1.209,1.125s-4.751,7.5-6.334,10.208
				c-1.583,2.708-3.542,5.791-5.708,7.041c-2.166,1.25-10.876,5.876-12.667,6.834c-1.791,0.958-6.499,2.626-9.166,3.167
				c-2.667,0.541-15.084,3.499-16.292,3.999c-1.208,0.5-2.001,1.583-2.667,2.5c-0.666,0.917-8.916,15.293-8.916,15.293l-5.044,16
				h-15.622v-27.333L369.54,292.5z" />
				<path style="opacity:0.4;fill:#D17162;" d="M362.249,299.751v27.333h15.622l5.044-16c-6,4.834-14-10.084-13.375-18.584
				L362.249,299.751z" />
				<path style="opacity:0.4;fill:#D17162;"
					d="M411.593,260.316c-0.559,0.625-1.147,1.214-1.735,1.802l0.222-0.332
				c-0.348,1.583-0.771,3.159-1.323,4.704l-0.447,1.15c-0.159,0.38-0.293,0.769-0.484,1.137c-0.366,0.743-0.71,1.496-1.143,2.206
				c-0.444,0.703-0.848,1.432-1.367,2.085l-0.776,0.979c-0.267,0.318-0.511,0.654-0.819,0.938l-0.895,0.868
				c-0.307,0.278-0.576,0.594-0.921,0.829c-0.663,0.498-1.334,0.979-2.014,1.433c-0.164,0.109-0.387,0.064-0.496-0.1
				c-0.091-0.136-0.076-0.311,0.024-0.43l0.026-0.031c0.52-0.614,1.049-1.2,1.585-1.771c0.274-0.278,0.485-0.617,0.735-0.917
				l0.721-0.918c0.259-0.289,0.453-0.631,0.668-0.954l0.648-0.964c0.441-0.635,0.764-1.351,1.174-2.005
				c0.395-0.666,0.676-1.4,1.047-2.083c0.187-0.341,0.32-0.712,0.478-1.069c0.15-0.362,0.313-0.719,0.475-1.076
				c0.166-0.354,0.293-0.73,0.442-1.096l0.453-1.097c0.283-0.741,0.581-1.482,0.885-2.222l0.104-0.253l0.117-0.08
				c0.689-0.468,1.378-0.934,2.097-1.364c0.196-0.117,0.45-0.053,0.567,0.143C411.733,259.987,411.709,260.185,411.593,260.316z" />
				<path style="opacity:0.4;fill:#D17162;" d="M422.64,258.68c0,0,0.035,0.314,0.041,0.877c0.009,0.564,0.018,1.365-0.034,2.322
				c-0.009,0.482-0.069,0.995-0.119,1.542c-0.055,0.546-0.096,1.126-0.192,1.717c-0.192,1.181-0.361,2.45-0.678,3.69
				c-0.149,0.621-0.299,1.242-0.446,1.854c-0.138,0.614-0.36,1.196-0.531,1.77c-0.189,0.568-0.371,1.118-0.544,1.64
				c-0.159,0.524-0.366,1.002-0.559,1.442c-0.769,1.76-1.328,2.9-1.328,2.901c-0.065,0.133-0.227,0.188-0.359,0.122
				c-0.115-0.057-0.172-0.185-0.144-0.304l0.005-0.02c0,0.001,0.299-1.236,0.82-3.042c0.294-0.892,0.496-1.977,0.8-3.107
				c0.14-0.569,0.322-1.147,0.431-1.754c0.132-0.601,0.266-1.211,0.4-1.822c0.137-0.609,0.284-1.217,0.384-1.824
				c0.109-0.605,0.232-1.198,0.353-1.773c0.117-0.574,0.194-1.136,0.3-1.664c0.09-0.529,0.199-1.029,0.27-1.493
				c0.145-0.929,0.312-1.7,0.379-2.241c0.09-0.545,0.141-0.857,0.141-0.857c0.028-0.168,0.186-0.282,0.355-0.255
				c0.139,0.023,0.241,0.136,0.256,0.27L422.64,258.68z" />
				<path style="opacity:0.4;fill:#D17162;"
					d="M423.87,262.495c0,0,0.198-0.184,0.559-0.482c0.367-0.291,0.871-0.734,1.511-1.217
				c0.629-0.493,1.389-1.045,2.188-1.631c0.731-0.636,1.529-1.278,2.334-1.917c0.436-0.329,0.872-0.658,1.301-0.981
				c0.427-0.308,0.846-0.609,1.252-0.901c0.815-0.578,1.586-1.11,2.286-1.531c1.386-0.851,2.333-1.364,2.333-1.365
				c0.132-0.071,0.296-0.022,0.367,0.109c0.059,0.109,0.032,0.246-0.055,0.328c0,0-0.779,0.734-1.983,1.759
				c-0.608,0.511-1.319,1.108-2.08,1.747c-0.387,0.315-0.786,0.642-1.192,0.973c-0.401,0.316-0.81,0.638-1.218,0.959
				c-0.858,0.693-1.725,1.383-2.554,1.995c-0.84,0.553-1.648,1.013-2.344,1.411c-0.691,0.404-1.295,0.699-1.705,0.925
				c-0.415,0.218-0.66,0.33-0.66,0.33c-0.156,0.071-0.34,0.003-0.411-0.153C423.741,262.727,423.774,262.584,423.87,262.495z" />
				<path style="opacity:0.4;fill:#D17162;"
					d="M444.45,255.117c-0.74,0.164-1.465,0.355-2.176,0.602
				c-0.361,0.103-0.695,0.277-1.043,0.403c-0.355,0.116-0.669,0.311-1.002,0.464c-0.341,0.145-0.628,0.363-0.93,0.557
				c-0.147,0.102-0.306,0.19-0.444,0.3l-0.383,0.358l-0.384,0.35c-0.084,0.072-0.233,0.277-0.348,0.409l-0.732,0.895l-0.737,0.892
				c-0.259,0.291-0.467,0.602-0.698,0.902l-1.37,1.813c-0.464,0.598-0.907,1.233-1.362,1.849l-1.364,1.852l-0.113,0.155
				l-0.135,0.065c-1.308,0.628-2.632,1.223-3.947,1.836c-0.654,0.311-1.325,0.592-1.99,0.884c-0.664,0.291-1.33,0.58-2.005,0.852
				c-0.138,0.056-0.295-0.011-0.351-0.149c-0.05-0.123-0.001-0.262,0.108-0.329c0.617-0.385,1.243-0.752,1.869-1.117
				c0.627-0.364,1.249-0.739,1.885-1.085c1.27-0.699,2.528-1.417,3.804-2.102l-0.248,0.22c0.43-0.646,0.862-1.291,1.306-1.925
				c0.452-0.632,0.881-1.268,1.354-1.896l1.423-1.874c0.241-0.307,0.469-0.634,0.727-0.917l0.762-0.87l0.766-0.866
				c0.144-0.154,0.218-0.268,0.419-0.455l0.495-0.399l0.497-0.393c0.173-0.117,0.359-0.207,0.537-0.31
				c0.362-0.197,0.714-0.417,1.097-0.549c0.379-0.143,0.743-0.327,1.132-0.424c0.387-0.104,0.767-0.232,1.16-0.297
				c0.774-0.164,1.563-0.281,2.353-0.307c0.17-0.005,0.313,0.128,0.317,0.298c0.005,0.15-0.099,0.278-0.24,0.31L444.45,255.117z" />
				<path style="opacity:0.4;fill:#D17162;" d="M442.148,261.725c-0.585,0.28-1.169,0.556-1.69,0.868
				c-0.272,0.14-0.529,0.328-0.792,0.495c-0.262,0.171-0.529,0.331-0.776,0.522c-0.517,0.35-0.989,0.752-1.46,1.15
				c-0.44,0.429-0.89,0.849-1.269,1.314c-0.207,0.222-0.392,0.456-0.546,0.706c-0.164,0.241-0.335,0.478-0.503,0.766l-1.016,1.642
				l-2.067,3.259l-0.099,0.155l-0.145,0.083c-1.482,0.853-2.977,1.685-4.485,2.493c-0.752,0.407-1.498,0.825-2.265,1.208
				c-0.764,0.39-1.521,0.789-2.296,1.157c-0.135,0.064-0.296,0.007-0.359-0.128c-0.057-0.118-0.019-0.259,0.084-0.333
				c0.693-0.507,1.405-0.982,2.11-1.468c0.702-0.492,1.425-0.949,2.142-1.417c1.429-0.942,2.872-1.859,4.327-2.757l-0.243,0.237
				l2.031-3.282l1.034-1.63c0.159-0.268,0.377-0.544,0.584-0.828c0.199-0.29,0.423-0.552,0.665-0.793
				c0.238-0.244,0.456-0.514,0.725-0.719c0.26-0.216,0.513-0.44,0.777-0.648c0.544-0.393,1.086-0.783,1.665-1.111
				c0.281-0.177,0.571-0.34,0.875-0.476c0.302-0.142,0.589-0.297,0.909-0.414c0.314-0.12,0.626-0.257,0.935-0.359l0.931-0.268
				c0.163-0.047,0.333,0.048,0.38,0.211C442.353,261.508,442.282,261.66,442.148,261.725z" />
			</g>
			<path style="fill:#AB1538;" d="M316.764,227.064c4.568,3.27,9.402,6.936,12.485,13.27s5.666,13.916,6.833,23.75
			c1.167,9.834,1.333,24.416,1.333,24.791c0.875,6.875,7.25,25.125,7.25,25.125l6.5-2c0,0,11.25-15.25,13.625-17.875
			s4.75-1.625,4.75-1.625s-1.75,3.25-1.25,8.25s7.875,21.002,9.875,19.668l4.75-9.334c0,0,1.584,2.667,1.667,5.667
			s-0.668,8.584-1.584,10.75c-0.916,2.166-6.75,14.25-7.25,15s-2.083,1.666-2.083,1.666s-0.418,12.917-2.334,16.584
			c-1.916,3.667-12.499,16.583-17.499,20.75s-21.75,14.833-24.167,15.5c-2.417,0.667-7.5,2.083-12-4s-19-26.834-19-26.834V239.833
			L316.764,227.064z" />
			<g>
				<path style="fill:#80102A;" d="M329.665,397.001c0.888-0.245,3.712-1.841,7.174-3.966c-8.74,1.604-13.266-3.399-14.549-7.035
				c-1.5-4.25-5.125-18.875-6.125-23.125s-0.625-10.875,0.875-13.5s5.125-9.25,6-9.75s11.5-7.375,12.125-7.375
				s-9.625,11.125-10.125,12.25s-0.25,4.25-0.75,6.376s-4,3.999-4.5,8.124s3.375,15.25,3.375,13.875s3.333-21.875,3.5-24.709
				c0.167-2.834,11.5-15.833,12.5-17.537c0.833-1.371,5.5-16.629,5.5-16.629s-0.552-1.58-1.351-3.977l-4.982,17.643
				c0,0-8-2.166-10-0.833c-2,1.333-8.334,12.667-8.834,13.167s-2.666-1.5-1.377-5.334c1.289-3.834,2.379-13.794,2.669-15.541
				c0.994-5.979,1.209-8.292,0.875-12.125c-0.334-3.833-6-34.667-9.979-43.5l-13.021-0.839v103.506c0,0,14.5,20.751,19,26.834
				S327.248,397.668,329.665,397.001z" />
				<path style="fill:#80102A;" d="M355.415,322.125c1.488,12.647,13.375,22.25,18.25,22.042c0,0,1.583-0.916,2.083-1.666
				c0.21-0.316,1.361-2.63,2.692-5.368c-3.695,3.402-8.145,5.497-11.15,3.367c-4.932-3.494-5-11.25-6.375-13.625
				S354.915,317.875,355.415,322.125z" />
				<path style="fill:#80102A;" d="M371.153,309.63c2.946,10.372,5.637,12.995,8.637,13.87c1.902,0.555,3.601-1.352,4.591-2.821
				c0.152-1.456,0.23-2.857,0.201-3.928c-0.083-3-1.667-5.667-1.667-5.667l-4.75,9.334c-1.242,0.828-4.558-5.031-7.012-10.789
				V309.63z" />
			</g>
			<path style="fill:#AB1538;" d="M219.14,213.173c-3.85,1.577-6.891,1.702-9.183,2.827c-2.292,1.125-5.792,2.375-7.042,3.25
			s-1.75,2.5-1.75,2.5s-18.375,6.125-26.125,10.5s-14.75,11.875-15.75,25.25s-1.958,40.001-1.958,40.501
			c-0.834,13.666-4.666,44.499-4.5,47.166c0.166,2.667,35.833,8.5,35.833,8.5s-9.834,30.833-10.167,34
			c-0.333,3.167,4.834,12.5,5.834,13.667c1,1.167,33.67,15.5,65.668,15.5s64.668-14.333,65.668-15.5
			c1-1.167,6.167-10.5,5.834-13.667c-0.333-3.167-10.167-34-10.167-34s7.33-42.167,7.33-46.542s-7.75-48-7.75-48
			s7.126-28.916,7.001-30.541s-4.376-3.209-5.876-4.209c-0.799-0.532-6.968-1.618-12.708-3.624c-0.69-0.242-1.399-1.377-1.998-1.759
			c-3.782-2.408-7.823-2.771-8.329-3.124c-1.253-0.875-8.145-2.695-8.145-2.695H219.14z" />
			<path style="fill:#80102A;" d="M211.165,332.452c0,0,5.167-14.507,5.167-18.604c0-4.098-3.851-11.566-3.851-11.566l-37.316-13.531
			l1.334-13.334l-1.477-5.414c-3.311,3.872-11.743,15.832-17.557,24.192c-0.085,2.276-0.133,3.695-0.133,3.807
			c-0.834,13.666-4.666,44.499-4.5,47.166c0.166,2.667,35.833,8.5,35.833,8.5s-6.438,20.185-9.071,29.567
			c15.956-11.196,43.674-33.686,42.673-39.065C221.165,338.25,211.165,332.452,211.165,332.452z" />
			<path style="fill:#FCAB90;" d="M273.335,171.416c0,0-5.939,22.209-3.314,29.959s18.564,17,19.939,17.75S275.54,252.75,250,252.75
			s-41.335-32.875-39.96-33.625s17.314-10,19.939-17.75s-3.314-29.959-3.314-29.959H273.335z" />
			<path style="opacity:0.4;fill:#D17162;"
				d="M269.639,190.88c0.913-9.054,3.696-19.464,3.696-19.464h-46.67
			c0,0,2.783,10.412,3.696,19.466c6.322,11.888,15.437,17.897,19.639,18.368C254.201,208.779,263.316,202.769,269.639,190.88z" />
			<g>
				<path style="fill:#FCAB90;" d="M288.624,137.834c3.583-4.583,6.749-5.167,8.416-4.167c1.667,1,4.5,6.833,3.5,11.75
				c-1,4.917-6.083,12.668-8.333,15.084s-7.5,3.666-10.5,3.333L288.624,137.834z" />
				<path style="opacity:0.4;fill:#D17162;" d="M289.206,155.5c1.083-0.834,3.584-2.833,4-4c0.416-1.167-0.25-5.083-0.416-6.083
				c-0.166-1,1-4.5,1.583-4.917c0.583-0.417,1.917,2.834,2.583,2.667c0.666-0.167-0.5-5.167-1.166-6
				c-0.608-0.761-3.047-0.545-7.446,1.72l-4.769,17.925c0.439,0.069,0.875,0.134,1.298,0.189c3.833,0.5,4.833,1.25,4.833,0.667
				C289.706,157.084,288.123,156.334,289.206,155.5z" />
				<path style="fill:#FCAB90;" d="M211.375,137.834c-3.583-4.583-6.749-5.167-8.416-4.167c-1.667,1-4.5,6.833-3.5,11.75
				c1,4.917,6.083,12.668,8.333,15.084s7.5,3.666,10.5,3.333L211.375,137.834z" />
				<path style="opacity:0.4;fill:#D17162;" d="M210.793,155.5c-1.083-0.834-3.584-2.833-4-4s0.25-5.083,0.416-6.083
				s-1-4.5-1.583-4.917c-0.583-0.417-1.917,2.834-2.583,2.667c-0.666-0.167,0.5-5.167,1.166-6c0.608-0.761,3.047-0.545,7.446,1.72
				l4.769,17.925c-0.439,0.069-0.875,0.134-1.298,0.189c-3.833,0.5-4.833,1.25-4.833,0.667
				C210.293,157.084,211.876,156.334,210.793,155.5z" />
			</g>
			<path style="fill:#FCAB90;" d="M249.999,70.25c-21.46,0-39.54,15.25-42.165,27.125s-1.25,37.041,1.833,48.125
			c3.083,11.084,7.417,24.667,15.417,33.083c8,8.416,19.584,12.667,24.916,13c5.331-0.333,16.915-4.584,24.915-13
			c8-8.416,12.334-21.999,15.417-33.083s4.458-36.25,1.833-48.125S271.46,70.25,249.999,70.25z" />
			<g>
				<ellipse style="fill:#423636;" cx="272.016" cy="137.938" rx="5" ry="5.125" />
				<path style="fill:#302727;" d="M263.453,139.281c1.813-2.25,4.255-5.508,8.563-5.75c5-0.281,7.781,2.668,7.813,3.24
				c0.031,0.572,0,1.791,0,1.791s1.844-1.25,3.063-2.438c1.219-1.188,1.5-2.344,1.375-2.375c-0.125-0.031-3.031,0.438-3.219,0.438
				s-2.625-3.094-9.031-2.674C267.488,131.811,263.578,135.938,263.453,139.281z" />
				<path style="fill:#302727;" d="M259.703,126.125c0,0,8.688-3.813,12.688-4.563s11.813-0.875,11.625-1.063
				s-5.535-1.875-10.143-2.063c-4.607-0.188-9.607,1.5-11.857,2.813S259.016,124.375,259.703,126.125z" />
				<ellipse style="fill:#423636;" cx="227.984" cy="137.938" rx="5" ry="5.125" />
				<path style="fill:#302727;" d="M236.547,139.281c-1.813-2.25-4.255-5.508-8.563-5.75c-5-0.281-7.781,2.668-7.813,3.24
				c-0.031,0.572,0,1.791,0,1.791s-1.844-1.25-3.063-2.438c-1.219-1.188-1.5-2.344-1.375-2.375c0.125-0.031,3.031,0.438,3.219,0.438
				s2.625-3.094,9.031-2.674C232.512,131.811,236.422,135.938,236.547,139.281z" />
				<path style="fill:#302727;" d="M240.297,126.125c0,0-8.688-3.813-12.688-4.563s-11.813-0.875-11.625-1.063
				s5.535-1.875,10.143-2.063c4.607-0.188,9.607,1.5,11.857,2.813S240.984,124.375,240.297,126.125z" />
			</g>
			<g>
				<path style="fill:#690000;" d="M263.329,169.291c0,3.773-5.968,8.959-13.329,8.959c-7.361,0-13.329-5.186-13.329-8.959
				c0-3.773,5.968-4.708,13.329-4.708C257.361,164.583,263.329,165.518,263.329,169.291z" />
				<path style="fill: #D8A850;" d="M238.047,166.708c2.172,1.643,6.701,2.125,11.953,2.125s9.781-0.482,11.953-2.125
				c-2.172-1.643-6.701-2.125-11.953-2.125S240.219,165.065,238.047,166.708z" />
				<path style="fill:#DE4949;" d="M250,168.833c-4.862,0-9.208,1.607-12.111,3.679c2.105,2.966,6.73,5.738,12.111,5.738
				c5.382,0,10.007-2.773,12.111-5.738C259.208,170.439,254.862,168.833,250,168.833z" />
			</g>
			<g>
				<path style="fill:#D17162;" d="M253.561,157.938c-0.625-0.219-1.817,2-1.313,2c0.938,0,2.594-0.188,2.625-0.5
				C254.904,159.125,254.186,158.156,253.561,157.938z" />
				<path style="fill:#D17162;" d="M246.439,157.938c-0.625,0.219-1.344,1.188-1.313,1.5c0.031,0.313,1.688,0.5,2.625,0.5
				C248.257,159.938,247.064,157.719,246.439,157.938z" />
			</g>
			<path style="opacity:0.4;fill: #D8A850;" d="M249.196,157.313c0,0-0.389-12.949-0.563-12.813c-1.031,0.813-2.415,8.563-2.344,9.781
			C246.361,155.5,249.009,158.281,249.196,157.313z" />
			<path style="fill:#382E2E;" d="M301.532,98.976C300.355,82.213,280.669,59.307,250,59.307s-50.355,22.906-51.532,39.669
			c-1.176,16.764-0.522,29.752,2.353,34.85c1.83,8.169,7.776,16.209,8.477,17.091c0.7,0.882,0.084-4.721,0.476-15.598
			c3.199-6.015,6.426-19.237,7.077-25.466c0.651,8.19,3.883,15.441,8.191,17.488c0.265-2.242-1.909-17.063,2.063-30.57
			c1.607,6.994,5.102,20.091,9.738,25.392c6.469,7.397,16.924,6.758,16.924,6.246s-4.901-13.948-5.227-14.588
			c6.403,8.445,14.31,13.308,16.271,14.332c7.514,1.215,14.049,1.6,14.309,0.959c0.262-0.64-0.9-12.156-0.875-11.836
			c1.725,3.967,8.978,15.035,11.983,18.043c0.392,10.877-0.225,16.479,0.476,15.598c0.7-0.882,6.646-8.922,8.477-17.091
			C302.055,128.727,302.708,115.739,301.532,98.976z" />
			<path style="fill:#80102A;" d="M300.642,221.189c-0.438-0.142-0.875-0.286-1.31-0.438c-0.179-0.063-0.358-0.187-0.537-0.34
			C293.584,234.977,277.044,261.5,250,261.5c-26.632,0-43.083-25.727-48.555-40.422c-0.189,0.388-0.28,0.672-0.28,0.672
			s-0.525,0.176-1.421,0.482c5.822,15.24,22.809,41.268,50.256,41.268C278.087,263.5,295.215,236.251,300.642,221.189z" />
			<path style="fill:#80102A;" d="M303.665,350.875c3.227-0.035,6.043-0.734,8.445-1.704c1.59-9.264,5.159-30.32,6.239-38.787v-0.001
			c-7.56,11.242-22.935,21.367-32.935,23.867s-18,2.625-16.125,4.375S292.29,351,303.665,350.875z" />
			<g>
				<path style="fill:#FCAB90;" d="M208.771,232.5l3.432-4.245c1.087-4.755,6.091-9.88,6.089-16.88c-0.002-7-4.76-18-4.76-18h-14.066
				v31.5L208.771,232.5z" />
				<path style="fill:#382E2E;" d="M206.798,143.063c-2.857-0.375-2.648-0.438-3.953,2.188s-7.463,27.3-6.865,29.351
				c0.598,2.051,14.959,37.841,15.272,39.311c0.312,1.471,4.307,2.059,5.173-0.739c0.866-2.798,2.991-25.923,2.991-27.298
				S206.798,143.063,206.798,143.063z" />
				<path style="opacity:0.5;fill:#363636;" d="M211.592,213.173c0.866-2.798,2.991-25.923,2.991-27.298
				c0-1.171-9.149-31.395-11.865-40.338c-1.531,3.757-7.318,27.072-6.738,29.064c0.596,2.046,14.883,37.65,15.266,39.292
				C211.385,213.681,211.507,213.447,211.592,213.173z" />
				<path style="fill:#FCAB90;" d="M176.665,272.375c0,0,13.25-37.25,14.25-40.75s1.5-4.875,1.125-8.625s-3.124-29.584-3.458-31.417
				c-0.334-1.833-0.251-4.332,0.166-6.666c0.417-2.334,3.917-12.583,4.917-15c1-2.417,2.663-4.084,4.248-5.334
				c1.585-1.25,9.334-6.322,9.918-6.661c0.584-0.339,5.25-3.088,6.25-4.005c1-0.917,2.585,0.622,1.5,3.597
				c-1.085,2.975-3.5,5.093-5,6.373s-5.583,4.363-5.583,4.363s4.25-1.251,5.5-1.542c1.25-0.291,2.75,0.291,6.25,0
				c3.5-0.291,5.25-0.459,5.5,0.875c0.25,1.334-2.083,4.333-5.25,5c-3.167,0.667-6.25,0.958-6.25,0.958s4.25,2.543,6.75,3.876
				c2.5,1.333,3.083,2.167,2.75,3.25c-0.333,1.083-3.084,2.499-5.917,1.916c-2.833-0.583-4.374-1.083-4.374-1.083
				s-3.311,4.082-3.51,4.666c-0.199,0.584-1.616,8.167-1.616,8.167s4.085,11.834,5.501,16.167s2.749,12.416,1.999,16.833
				c-0.75,4.417-5.999,63.25-5.999,63.25h-29.667V272.375z" />
				<path style="opacity:0.4;fill:#D17162;" d="M208.595,265.571c-6.355,12.884-22.097-4.569-25.65-10.924l0,0
				c-3.263,9.247-6.279,17.727-6.279,17.727v18.208h29.667C206.332,290.583,207.374,278.908,208.595,265.571z" />
				<path style="opacity:0.4;fill:#D17162;" d="M203.852,169.113c0,0-1.233,0.689-3.083,1.722c-0.454,0.263-0.946,0.542-1.425,0.846
				c-0.088,0.07-0.156,0.13-0.242,0.188l-0.016,0.011c-0.014,0.014,0.101-0.118,0.051-0.06l-0.004,0.007l-0.007,0.013l-0.029,0.052
				l-0.059,0.102l-0.118,0.209c-0.168,0.277-0.325,0.558-0.46,0.837c-0.293,0.566-0.596,1.15-0.903,1.745
				c-0.323,0.615-0.651,1.24-0.979,1.866c-1.313,2.505-2.695,4.977-3.766,6.813c-1.08,1.833-1.845,3.031-1.845,3.032
				c-0.08,0.125-0.247,0.162-0.372,0.082c-0.11-0.07-0.152-0.208-0.106-0.326c0,0.001,0.518-1.325,1.378-3.272
				c0.864-1.944,2.082-4.505,3.39-7.021c0.334-0.627,0.667-1.253,0.995-1.87c0.315-0.606,0.703-1.262,1.046-1.854
				c0.173-0.31,0.349-0.59,0.523-0.852l0.132-0.197l0.067-0.098l0.032-0.049l0.008-0.013l0.005-0.006
				c-0.048,0.056,0.067-0.082,0.06-0.07l0.031-0.024c0.167-0.124,0.345-0.252,0.507-0.353c0.572-0.311,1.105-0.554,1.601-0.767
				c1.982-0.83,3.343-1.254,3.342-1.254l0.006-0.002c0.162-0.051,0.335,0.04,0.386,0.202
				C204.039,168.895,203.976,169.044,203.852,169.113z" />
				<path style="opacity:0.4;fill:#D17162;" d="M209.528,173.826c-1.102,0.571-2.216,1.115-3.338,1.636
				c-1.123,0.521-2.252,1.025-3.389,1.509l0.077-0.037c-0.042,0.087-0.064,0.075-0.153,0.19l-0.258,0.357l-0.516,0.797
				c-0.334,0.56-0.659,1.127-0.979,1.705c-0.65,1.148-1.274,2.319-1.911,3.485c-1.265,2.338-2.546,4.677-3.903,6.979
				c-0.075,0.129-0.24,0.172-0.369,0.097c-0.114-0.066-0.16-0.205-0.117-0.325c0.462-1.26,0.961-2.501,1.489-3.73
				c0.527-1.229,1.079-2.449,1.666-3.652c0.572-1.211,1.197-2.397,1.838-3.582c0.324-0.591,0.676-1.172,1.03-1.755
				c0.197-0.29,0.37-0.581,0.588-0.87l0.35-0.439c0.116-0.147,0.372-0.354,0.568-0.499l0.018-0.014l0.059-0.023
				c1.154-0.44,2.317-0.859,3.486-1.263c1.17-0.403,2.348-0.783,3.537-1.136c0.163-0.048,0.334,0.045,0.383,0.208
				C209.727,173.607,209.656,173.76,209.528,173.826z" />
			</g>
			<g>
				<path style="fill:#AB1538;" d="M183.875,252.006l-0.931,2.642c0,0,5.389,10.352,10.222,16.352c4.833,6,9.64,7.117,12.095,5.667
				c2.455-1.45,2.834-5.622,2.834-5.622l0.651-7.123c0,0,2.169,3.391,2.419,5.578s-1.208,26.063-1.208,26.063
				s6.208,13.272,3.875,21.605c-2.333,8.333-17.833,39.834-20.833,44.5c-3,4.666-10.781,12.673-10.891,13.033
				c-0.109,0.36-10.942,2.033-15.442,0s-12.845-24.034-13.839-27.867c-0.994-3.833,6.838-29.236,8.672-36.451
				c1.834-7.215,2.834-8.381,2.834-11.715c0-3.334-0.666-11.001,1-13.334c1.666-2.333,8-5.333,8-5.333s-1.001-1.834-0.334-3.667
				c0.667-1.833,7.041-22.772,7.916-23.584S183.875,252.006,183.875,252.006z" />
				<path style="fill:#80102A;" d="M211.025,275.834c0,0-4.944,18.332-9.777,22.832c-4.833,4.5-9.832,3.75-12.416,1
				s-4.901-7.333-5.284-9.083c-0.383-1.75-0.3-3.834-1.8-5.417c-1.5-1.583-8.221-6.599-5.916-2.416
				c1.151,2.09,9.082,16.334,14.166,20c5.084,3.666,11.918,1.333,13.834-0.417s6.125-7.083,6.125-7.083l0.02-0.013
				C210.095,293.295,210.72,282.854,211.025,275.834L211.025,275.834z" />
			</g>
		</g>
		<g>
			<path style="fill: #D8A850;" d="M392.867,43.127c-37.307,0-67.55,22.99-67.55,51.35c0,18.497,12.871,34.703,32.172,43.744
			c-0.004,0.035-0.01,0.07-0.015,0.106l-0.333,1.574c-0.201,1.094-0.547,2.109-0.863,3.178c-0.152,0.543-0.336,1.06-0.546,1.555
			c-0.205,0.512-0.408,1.018-0.607,1.516c-0.194,0.517-0.42,0.998-0.665,1.454c-0.24,0.472-0.478,0.933-0.708,1.382
			c-0.449,0.935-0.98,1.73-1.472,2.493c-0.5,0.75-0.938,1.511-1.404,2.087c-0.47,0.593-0.879,1.109-1.217,1.536
			c-0.701,0.867-1.103,1.364-1.103,1.364l-0.034,0.041c-0.09,0.113-0.137,0.263-0.113,0.417c0.042,0.297,0.317,0.503,0.613,0.459
			c0,0,0.642-0.091,1.764-0.252c0.574-0.089,1.272-0.196,2.073-0.321c0.817-0.12,1.678-0.384,2.675-0.62
			c0.989-0.251,2.092-0.518,3.192-0.941c0.565-0.202,1.146-0.41,1.741-0.623c0.607-0.209,1.213-0.45,1.807-0.736
			c0.609-0.28,1.229-0.565,1.854-0.854c0.643-0.288,1.273-0.606,1.884-0.965c1.236-0.701,2.558-1.412,3.761-2.261l1.859-1.264
			c0.594-0.457,1.184-0.913,1.77-1.365c1.189-0.897,2.251-1.882,3.323-2.844c5.174,0.965,10.576,1.486,16.142,1.486
			c37.307,0,67.549-22.989,67.549-51.348C460.416,66.117,430.174,43.127,392.867,43.127z" />
			<path style="fill: #D8A850;" d="M96.062,117.406c33.389,0,60.455,20.576,60.455,45.957c0,16.554-11.52,31.059-28.793,39.149
			c0.004,0.032,0.009,0.064,0.013,0.096l0.299,1.409c0.18,0.979,0.489,1.888,0.772,2.844c0.136,0.485,0.301,0.948,0.488,1.392
			c0.184,0.458,0.365,0.91,0.544,1.357c0.174,0.462,0.376,0.893,0.595,1.301c0.215,0.423,0.428,0.835,0.634,1.237
			c0.402,0.836,0.877,1.549,1.317,2.231c0.447,0.671,0.839,1.352,1.257,1.867c0.42,0.53,0.786,0.993,1.089,1.375
			c0.628,0.776,0.986,1.221,0.986,1.221l0.031,0.037c0.08,0.102,0.122,0.235,0.101,0.373c-0.037,0.266-0.283,0.45-0.549,0.411
			c0,0-0.574-0.082-1.578-0.226c-0.514-0.08-1.139-0.176-1.855-0.288c-0.732-0.107-1.502-0.344-2.394-0.555
			c-0.886-0.225-1.872-0.463-2.857-0.842c-0.506-0.181-1.026-0.367-1.559-0.558c-0.543-0.186-1.085-0.403-1.616-0.659
			c-0.546-0.25-1.1-0.506-1.659-0.764c-0.575-0.258-1.14-0.543-1.687-0.863c-1.105-0.628-2.288-1.264-3.365-2.023l-1.664-1.131
			c-0.531-0.409-1.06-0.817-1.585-1.222c-1.063-0.804-2.015-1.685-2.974-2.546c-4.631,0.864-9.466,1.331-14.446,1.331
			c-33.389,0-60.455-20.575-60.455-45.955C35.606,137.982,62.673,117.406,96.062,117.406z" />
		</g>
	</g>
</svg>